<svg width="128" height="128" viewBox="0 0 128 128" fill="none" xmlns="http://www.w3.org/2000/svg">
<rect width="128" height="128" fill="white"/>
<path d="M35.8 89.98C23.06 89.98 15.5 81.72 15.5 69.68C15.5 52.67 28.38 37.97 45.25 37.97C57.99 37.97 65.55 46.23 65.55 58.27C65.55 75.28 52.67 89.98 35.8 89.98ZM36.29 84.38C49.94 84.38 59.18 72.06 59.18 58.27C59.18 50.01 55.05 43.57 44.76 43.57C31.11 43.57 21.87 55.89 21.87 69.68C21.87 77.94 26 84.38 36.29 84.38ZM74.3957 89H68.0957L77.8257 38.95H85.3857L102.396 80.04H102.676L110.656 38.95H116.956L107.226 89H99.6657L82.6557 47.91H82.3757L74.3957 89Z" fill="black"/>
</svg>
